<?xml version="1.0" encoding="utf-8"?>
<!-- Generator: Adobe Illustrator 18.1.1, SVG Export Plug-In . SVG Version: 6.00 Build 0)  -->
<svg version="1.0" id="Layer_1" xmlns:sketch="http://www.bohemiancoding.com/sketch/ns"
	 xmlns="http://www.w3.org/2000/svg" xmlns:xlink="http://www.w3.org/1999/xlink" x="0px" y="0px" viewBox="162 -77 404 234"
	 enable-background="new 162 -77 404 234" xml:space="preserve">
<title>Group</title>
<desc>Created with Sketch.</desc>
<g id="Log-In-_x2F_-Onboarding" sketch:type="MSPage">
	<g id="_x30_-splash-copy" transform="translate(-174.000000, -550.000000)" sketch:type="MSArtboardGroup">
		<g id="Group" transform="translate(174.000000, 550.000000)" sketch:type="MSLayerGroup">
			<path id="Fill-3" sketch:type="MSShapeGroup" fill="#FD6B69" d="M492.1,14.6l8.4-43.6l35.2-8.9c17.1-4.3,30.3-21.3,30.3-38.9
				l-65.3,15.6C485-57,471.5-41.8,468.9-26.7L460,26.2c-2.6,15.4,7.5,25.3,23.5,21.2l39.6-9.7c16-4.1,30.7-19.9,33.2-35.2l0.6-3.8
				c2.5-15.5-10.5-24.4-26.8-20.3l-27.5,6.9c0.7,1.6,9.9,23.3,24.8,20.6l0.1-0.1L492.1,14.6z"/>
			<path id="Fill-9" sketch:type="MSShapeGroup" fill="#FD6B69" d="M462.2-53.8L462.2-53.8c-17.2,1.2-33,15.3-36,32.3l-5.1,29.9
				c-6.2-9.6-14.8-23.2-16.6-25.9c-2-3.2-9.9-16.4-18.6-15.9c-5.6,0.4-17.2-0.9-21.6,31.4l-14.9,84.2c22.3-4.7,33.1-16.2,36.2-33.2
				l6.2-31.2c0,0,19.5,29.7,19.9,30.3c3.6,5.8,9.5,14.6,19.9,13.1c11.3-1.6,12.1-8.4,13.4-15.3c0.2-2.3,4.1-25.9,6.4-39.1
				L462.2-53.8z"/>
			<path id="Fill-1" sketch:type="MSShapeGroup" fill="#FD6B69" d="M330-1.3c-1-6.9-6.4-15.1-17.3-13.7
				c-10.9,1.4-17.6,8.4-22.2,19.4c-4.5,11-47.1,105-47.1,105c17.9-4.3,38.7-13.4,46.1-32.7l16.8-35.9l3.1,21.3
				c1.8,16.8,17.4,25.4,32.8,22C342.2,84.1,330.5,2,330-1.3"/>
			<path id="Fill-6" sketch:type="MSShapeGroup" fill="#FD6B69" d="M220.9,123.3l15.5-88.6l10.8-2.7c17.1-4.3,30.3-21.3,30.3-38.9
				L193.4,15c-17.3,4.5-30.8,21.2-31.4,38.6l42.7-10.8l-15.8,92.1c-2.6,15.4,7.5,25.3,23.5,21.2l305.4-78
				c17.4-4.3,31.8-21.3,33-38.9L220.9,123.3z"/>
		</g>
	</g>
</g>
</svg>
