<?xml version="1.0" encoding="UTF-8" standalone="no"?>
<svg width="404px" height="234px" viewBox="0 0 404 234" version="1.1" xmlns="http://www.w3.org/2000/svg" xmlns:xlink="http://www.w3.org/1999/xlink" xmlns:sketch="http://www.bohemiancoding.com/sketch/ns">
    <!-- Generator: Sketch 3.5.1 (25234) - http://www.bohemiancoding.com/sketch -->
    <title>Group</title>
    <desc>Created with Sketch.</desc>
    <defs></defs>
    <g id="Log-In-/-Onboarding" stroke="none" stroke-width="1" fill="none" fill-rule="evenodd" sketch:type="MSPage">
        <g id="0-splash-copy" sketch:type="MSArtboardGroup" transform="translate(-174.000000, -550.000000)" fill="#FFFFFF">
            <g id="Group" sketch:type="MSLayerGroup" transform="translate(174.000000, 550.000000)">
                <path d="M330.059674,91.633171 L338.424937,48.0423139 L373.668025,39.1193433 C390.731605,34.796734 403.947332,17.8081374 403.923191,0.217334874 L338.668815,15.8132382 C323.040913,20.0350702 309.46602,35.1767382 306.9154,50.3302046 L298.017547,103.20044 C295.423571,118.611995 305.497459,128.457692 321.481079,124.370066 L361.122347,114.662507 C377.106459,110.574881 391.844083,94.7415366 394.286805,79.5079399 L394.920396,75.7128139 C397.4114,60.1773769 384.385357,51.3138895 368.155888,55.363171 L340.653835,62.2243853 C341.34162,63.8092929 350.593713,85.5142676 365.417064,82.8031122 L365.537279,82.6605492 L330.059674,91.633171 Z" id="Fill-3" sketch:type="MSShapeGroup"></path>
                <path d="M300.21575,23.1642794 L300.21575,23.1642794 C282.981701,24.3490273 267.246394,38.468666 264.183877,55.489708 L259.113184,85.436792 C252.950214,75.789208 244.268648,62.1990189 242.532926,59.490813 C240.490755,56.3028088 232.657589,43.0783676 223.919858,43.6230567 C218.31214,43.9730735 206.701082,42.7524391 202.340345,75.0223172 L187.468219,159.211191 C209.726155,154.535124 220.598189,142.995876 223.660706,125.974834 L229.847326,94.7491071 C229.847326,94.7491071 249.395506,124.484313 249.765019,125.03146 C253.398555,130.841641 259.281682,139.605334 269.696014,138.087284 C280.961209,136.445351 281.835721,129.670658 283.083194,122.803544 C283.268936,120.467477 287.229121,96.8570735 289.434862,83.7103046 L300.21575,23.1642794 Z" id="Fill-9" sketch:type="MSShapeGroup"></path>
                <path d="M168.026113,75.6607538 C167.069815,68.7744681 161.590196,60.5879092 150.677761,61.9943672 C139.765327,63.4013168 133.035279,70.3937874 128.515405,81.4409471 C123.99504,92.4885983 81.4124541,186.401745 81.4124541,186.401745 C99.283542,182.092901 120.144722,172.955103 127.516737,153.748422 L144.339888,117.881039 L147.479757,139.153901 C149.322883,155.908497 164.908908,164.574855 180.246127,161.10959 C180.246127,161.10959 168.460659,79.0276992 168.026113,75.6607538" id="Fill-1" sketch:type="MSShapeGroup"></path>
                <path d="M58.9321698,200.335462 L74.4817356,111.715336 L85.3276576,108.967803 C102.391238,104.645193 115.606965,87.6565966 115.582823,70.0653025 L31.4448966,92.0116513 C14.1812868,96.5141849 0.609350244,113.168987 -9.85365853e-05,130.583798 L42.6869356,119.770147 L26.8900429,211.902731 C24.2960673,227.314286 34.3699551,237.159492 50.3535746,233.072357 L355.709584,155.081042 C373.076165,150.758433 387.482706,133.769345 388.691258,116.178542 L58.9321698,200.335462 Z" id="Fill-6" sketch:type="MSShapeGroup"></path>
            </g>
        </g>
    </g>
</svg>